<svg width="106" height="36" viewBox="0 0 106 36" fill="none" xmlns="http://www.w3.org/2000/svg">
<path d="M2.64205 29H5.28409V21.9261L8.01136 18.858L15.5966 29H18.7926L9.63068 17.0256L18.7926 7.18182H15.3409L5.53977 18.0057H5.28409V7.18182H2.64205V29ZM38.7464 29H41.2607V18.6449C41.2607 16.429 43.0078 14.8097 45.3942 14.8097C46.0653 14.8097 46.7578 14.9375 46.9283 14.9801V12.4233C46.6406 12.402 45.9801 12.3807 45.6072 12.3807C43.647 12.3807 41.9425 13.4886 41.3459 15.108H41.1754V12.6364H38.7464V29ZM80.1642 12.6364H77.437L72.9199 25.6761H72.7495L68.2324 12.6364H65.5051L71.5563 29H74.1131L80.1642 12.6364ZM83.4828 29H85.997V12.6364H83.4828V29ZM84.7612 9.90909C85.7413 9.90909 86.551 9.14205 86.551 8.20455C86.551 7.26705 85.7413 6.5 84.7612 6.5C83.7811 6.5 82.9714 7.26705 82.9714 8.20455C82.9714 9.14205 83.7811 9.90909 84.7612 9.90909ZM93.1161 19.1562C93.1161 16.3011 94.8846 14.6818 97.2923 14.6818C99.6254 14.6818 101.042 16.2053 101.042 18.7727V29H103.556V18.6023C103.556 14.4261 101.33 12.4233 98.0167 12.4233C95.5451 12.4233 94.011 13.5312 93.244 15.1932H93.0309V12.6364H90.6019V29H93.1161V19.1562Z" fill="black"/>
<circle cx="28" cy="21" r="7" stroke="black" stroke-width="2"/>
<circle cx="27.2012" cy="23.3993" r="4" fill="black"/>
<circle cx="56" cy="21" r="7" stroke="black" stroke-width="2"/>
<circle cx="58.4014" cy="20.2009" r="4" fill="black"/>
</svg>
